# xmcd
#
# Track frame offsets:
#	150
#	34827
#	62715
#	85025
#	104155
#	134732
#	162757
#	184717
#	214732
#	245707
#
# Disc length: 3589 seconds
# Revision: 0
# Processed by: cddbd v1.5.2PL0 Copyright (c) Steve Scherf et al.
# Submitted via: dBpowerAMP V12.0
#
DISCID=910e030a
DTITLE=Various Artist - The History of the House Sound of Chicago
DYEAR=1986
DGENRE=House
TTITLE0=Liz Torres feat. Kenny Jammin Jason - What You Make Me Feel (Fierce Mix)
TTITLE1=The House Rockers feat. Frankie Hollywood Rodriguez and Jimmy LA Perna - Everybody Do It! (Hollywood's House Mix)
TTITLE2=House People - Godfather of House (Club Version)
TTITLE3=ESP - It's You (Vocal Mix)
TTITLE4=Tyree featuring Chic - I Fear the Night (Subterranean Mix)
TTITLE5=Fingers Inc - It's Over (Dub)
TTITLE6=Raz - Amour Puerto Riqueno (Spanish Club Mix)
TTITLE7=Fingers Inc - Mystery of Love (Club Mix)
TTITLE8=Steve Silk Hurley - Jack Your Body (Club Mix)
TTITLE9=Professor Funk and The House Brothers - Work Your Body Rap
EXTD=
EXTT0=
EXTT1=
EXTT2=
EXTT3=
EXTT4=
EXTT5=
EXTT6=
EXTT7=
EXTT8=
EXTT9=
PLAYORDER=
